<svg xmlns="http://www.w3.org/2000/svg" width="173" height="244" viewBox="0 0 173 244" version="1.1"><path d="M 147 8.378 C 147 8.585, 147.787 9.373, 148.750 10.128 C 150.336 11.371, 150.371 11.336, 149.128 9.750 C 147.821 8.084, 147 7.555, 147 8.378 M 152.638 9.500 C 152.955 10.325, 153.671 11, 154.229 11 C 154.815 11, 154.718 10.365, 154 9.500 C 153.315 8.675, 152.599 8, 152.409 8 C 152.219 8, 152.322 8.675, 152.638 9.500 M 156.750 8.662 C 157.438 8.940, 158.563 8.940, 159.250 8.662 C 159.938 8.385, 159.375 8.158, 158 8.158 C 156.625 8.158, 156.063 8.385, 156.750 8.662 M 162.333 11.667 C 162.700 12.033, 163.300 12.033, 163.667 11.667 C 164.033 11.300, 163.733 11, 163 11 C 162.267 11, 161.967 11.300, 162.333 11.667 M 153.026 13.952 C 152.401 15.120, 152.187 17.015, 152.552 18.163 C 152.987 19.533, 152.844 20.022, 152.136 19.584 C 151.152 18.976, 150.787 19.910, 149.534 26.249 C 149.343 27.211, 149.593 28.249, 150.089 28.555 C 150.584 28.861, 151.487 30.041, 152.094 31.176 C 152.702 32.312, 152.796 32.992, 152.302 32.687 C 151.808 32.382, 150.751 32.545, 149.952 33.051 C 148.856 33.744, 148.823 33.973, 149.817 33.985 C 150.696 33.995, 150.914 34.695, 150.473 36.086 C 149.881 37.951, 150.033 38.053, 151.920 37.043 C 153.080 36.422, 153.969 36.271, 153.896 36.707 C 153.823 37.143, 153.816 38.528, 153.882 39.785 C 153.984 41.762, 154.274 41.924, 156.028 40.985 C 157.143 40.388, 157.762 39.424, 157.403 38.843 C 156.972 38.146, 156.458 38.248, 155.890 39.143 C 155.315 40.051, 155.026 40.106, 155.015 39.309 C 155.007 38.654, 155.450 37.840, 156 37.500 C 156.550 37.160, 156.968 36.121, 156.930 35.191 C 156.872 33.797, 156.726 33.842, 156.098 35.446 C 155.343 37.375, 155.332 37.375, 154.866 35.446 C 154.252 32.903, 154.929 29.838, 155.962 30.477 C 156.408 30.752, 157.365 30.195, 158.088 29.239 C 159.194 27.777, 159.186 27.694, 158.037 28.715 C 156.950 29.681, 156.381 29.579, 155.261 28.215 C 154.486 27.272, 154.137 27.063, 154.485 27.750 C 154.836 28.444, 154.520 29, 153.773 29 C 153.034 29, 152.414 28.212, 152.396 27.250 C 152.379 26.288, 152.027 24.488, 151.615 23.250 C 151.005 21.421, 151.236 21, 152.849 21 C 153.941 21, 155.009 21.528, 155.225 22.174 C 155.440 22.820, 155.507 20.974, 155.374 18.073 C 155.091 11.916, 154.588 11.033, 153.026 13.952 M 156.733 13.124 C 157.412 13.808, 158.219 14.115, 158.526 13.807 C 158.834 13.499, 158.279 12.940, 157.293 12.564 C 155.868 12.022, 155.753 12.136, 156.733 13.124 M 148 16.500 C 148 17.325, 148.177 18, 148.393 18 C 148.609 18, 149.045 17.325, 149.362 16.500 C 149.678 15.675, 149.501 15, 148.969 15 C 148.436 15, 148 15.675, 148 16.500 M 160 30 C 160 30.733, 160.300 31.033, 160.667 30.667 C 161.033 30.300, 161.033 29.700, 160.667 29.333 C 160.300 28.967, 160 29.267, 160 30 M 160.813 38.683 C 161.534 38.972, 162.397 38.936, 162.729 38.604 C 163.061 38.272, 162.471 38.036, 161.417 38.079 C 160.252 38.127, 160.015 38.364, 160.813 38.683 M 150.158 41 C 150.158 42.375, 150.385 42.938, 150.662 42.250 C 150.940 41.563, 150.940 40.438, 150.662 39.750 C 150.385 39.063, 150.158 39.625, 150.158 41 M 152.030 42.691 C 152.014 43.346, 152.408 44.134, 152.906 44.442 C 153.404 44.750, 153.578 45.896, 153.292 46.990 C 153.007 48.083, 152.374 48.731, 151.886 48.430 C 150.846 47.787, 150.737 49.150, 151.639 51.502 C 152.049 52.569, 152.520 52.776, 152.951 52.078 C 153.487 51.211, 153.655 58.352, 153.136 59.905 C 153.061 60.128, 151.988 59.453, 150.750 58.405 C 148.519 56.516, 148.514 56.517, 150.131 58.500 C 151.231 59.850, 151.498 61.150, 150.951 62.500 C 149.741 65.487, 149.797 65.706, 152.458 68.367 C 154.531 70.440, 154.694 71.009, 153.502 71.999 C 152.724 72.644, 151.548 72.839, 150.889 72.432 C 150.107 71.948, 149.954 72.116, 150.447 72.914 C 150.862 73.586, 151.749 73.927, 152.417 73.670 C 153.290 73.335, 153.550 74.556, 153.340 77.999 C 153.144 81.207, 153.514 83.182, 154.458 83.965 C 155.656 84.959, 155.780 84.269, 155.279 79.413 C 154.788 74.659, 154.926 73.833, 156.094 74.537 C 157.292 75.258, 157.297 75.133, 156.128 73.692 C 155.053 72.367, 155.015 71.687, 155.954 70.555 C 156.614 69.760, 156.955 68.073, 156.713 66.805 C 156.350 64.904, 156.243 65.026, 156.104 67.500 C 155.944 70.361, 155.868 70.410, 154.468 68.559 C 152.653 66.159, 152.496 60.899, 154.250 61.250 C 155.030 61.406, 155.379 60.631, 155.177 59.190 C 154.999 57.920, 155.449 56.159, 156.177 55.278 C 157.341 53.868, 157.579 54.086, 158.159 57.087 L 158.818 60.500 158.659 57 C 158.535 54.267, 158.116 53.564, 156.750 53.794 C 154.844 54.114, 154.361 52.513, 156.049 51.470 C 156.770 51.024, 156.744 50.396, 155.966 49.459 C 155.340 48.705, 155.143 47.125, 155.525 45.923 C 155.970 44.518, 155.844 43.978, 155.169 44.396 C 154.593 44.751, 153.659 44.245, 153.092 43.271 C 152.525 42.297, 152.047 42.036, 152.030 42.691 M 158.469 44.500 C 158.211 45.325, 157.795 46.661, 157.544 47.468 C 157.293 48.275, 157.469 49.172, 157.935 49.460 C 158.402 49.748, 158.967 48.413, 159.191 46.492 C 159.615 42.856, 159.275 41.918, 158.469 44.500 M 149 46 C 149 46.733, 149.300 47.033, 149.667 46.667 C 150.033 46.300, 150.033 45.700, 149.667 45.333 C 149.300 44.967, 149 45.267, 149 46 M 150.333 54.667 C 150.700 55.033, 151.300 55.033, 151.667 54.667 C 152.033 54.300, 151.733 54, 151 54 C 150.267 54, 149.967 54.300, 150.333 54.667 M 147.333 55.667 C 147.700 56.033, 148.300 56.033, 148.667 55.667 C 149.033 55.300, 148.733 55, 148 55 C 147.267 55, 146.967 55.300, 147.333 55.667 M 160 61 C 160 61.733, 160.300 62.033, 160.667 61.667 C 161.033 61.300, 161.033 60.700, 160.667 60.333 C 160.300 59.967, 160 60.267, 160 61 M 151 65 C 151 65.733, 151.300 66.033, 151.667 65.667 C 152.033 65.300, 152.033 64.700, 151.667 64.333 C 151.300 63.967, 151 64.267, 151 65 M 147.589 69.856 C 147.298 70.326, 148.172 70.499, 149.530 70.239 C 150.889 69.979, 152 69.594, 152 69.383 C 152 68.610, 148.101 69.027, 147.589 69.856 M 161.333 74.667 C 161.700 75.033, 162.300 75.033, 162.667 74.667 C 163.033 74.300, 162.733 74, 162 74 C 161.267 74, 160.967 74.300, 161.333 74.667 M 151.500 78 C 151.160 78.550, 151.359 79, 151.941 79 C 152.523 79, 153 78.550, 153 78 C 153 77.450, 152.802 77, 152.559 77 C 152.316 77, 151.840 77.450, 151.500 78 M 148.500 80 C 148.840 80.550, 149.343 81, 149.618 81 C 149.893 81, 149.840 80.550, 149.500 80 C 149.160 79.450, 148.657 79, 148.382 79 C 148.107 79, 148.160 79.450, 148.500 80 M 150.607 81.582 C 149.647 84.083, 149.898 88.941, 151.103 91.193 C 151.710 92.327, 151.823 93.535, 151.353 93.877 C 150.884 94.220, 150.469 95.471, 150.431 96.658 C 150.380 98.223, 150.860 98.719, 152.181 98.465 C 153.436 98.224, 154 98.717, 154 100.057 C 154 101.150, 153.318 102, 152.441 102 C 151.584 102, 151.160 101.550, 151.500 101 C 151.840 100.450, 151.641 100, 151.059 100 C 150.477 100, 150 101.129, 150 102.508 C 150 104.587, 150.300 104.857, 151.750 104.081 C 152.713 103.567, 154.287 102.902, 155.250 102.604 C 156.213 102.306, 157 101.572, 157 100.972 C 157 100.356, 156.457 100.217, 155.750 100.652 C 155.063 101.076, 155.366 100.090, 156.425 98.461 C 157.771 96.390, 157.881 95.883, 156.791 96.776 C 155.506 97.828, 155.126 97.772, 154.620 96.453 C 154.283 95.574, 154.490 93.953, 155.081 92.849 C 156.385 90.412, 155.615 88, 153.531 88 C 152.082 88, 151.489 85.822, 151.830 81.750 C 152.012 79.571, 151.410 79.488, 150.607 81.582 M 153.500 90 C 153.840 90.550, 154.316 91, 154.559 91 C 154.802 91, 155 90.550, 155 90 C 155 89.450, 154.523 89, 153.941 89 C 153.359 89, 153.160 89.450, 153.500 90 M 160 90 C 160 90.733, 160.300 91.033, 160.667 90.667 C 161.033 90.300, 161.033 89.700, 160.667 89.333 C 160.300 88.967, 160 89.267, 160 90 M 161.333 101.667 C 161.700 102.033, 162.300 102.033, 162.667 101.667 C 163.033 101.300, 162.733 101, 162 101 C 161.267 101, 160.967 101.300, 161.333 101.667 M 152 105.011 C 152 105.463, 152.563 106.023, 153.250 106.254 C 154.246 106.589, 154.248 106.981, 153.259 108.179 C 152.576 109.007, 152.351 110.088, 152.759 110.581 C 153.166 111.075, 152.512 110.648, 151.303 109.633 L 149.107 107.787 151.021 111.541 C 152.074 113.606, 152.655 115.749, 152.313 116.302 C 151.960 116.873, 152.191 117, 152.845 116.595 C 154.518 115.562, 154.317 119.826, 152.613 121.530 C 151.212 122.931, 151.153 127.033, 152.488 130.250 C 153.803 133.420, 154.835 132.073, 153.764 128.584 C 152.956 125.949, 153.058 124.291, 154.212 121.334 C 155.035 119.225, 155.589 115.475, 155.443 113 C 155.297 110.525, 155.554 108.045, 156.014 107.488 C 156.516 106.880, 155.882 106.020, 154.425 105.332 C 153.091 104.703, 152 104.558, 152 105.011 M 158.252 109.500 C 158.263 111.700, 158.468 112.482, 158.707 111.238 C 158.946 109.994, 158.937 108.194, 158.687 107.238 C 158.437 106.282, 158.241 107.300, 158.252 109.500 M 153 114 C 153 114.733, 153.300 115.033, 153.667 114.667 C 154.033 114.300, 154.033 113.700, 153.667 113.333 C 153.300 112.967, 153 113.267, 153 114 M 158 117.917 C 158 119.521, 157.438 121.050, 156.750 121.315 C 156.063 121.580, 156.412 121.754, 157.526 121.702 C 159.217 121.624, 159.489 121.061, 159.167 118.304 C 158.690 114.218, 158 113.989, 158 117.917 M 154.750 126.662 C 155.438 126.940, 156 127.804, 156 128.583 C 156 129.420, 156.921 129.953, 158.250 129.884 C 159.943 129.797, 160.067 129.655, 158.750 129.311 C 157.787 129.059, 157 128.211, 157 127.427 C 157 126.642, 156.213 126.036, 155.250 126.079 C 154.205 126.126, 154.003 126.361, 154.750 126.662 M 147 129.378 C 147 129.585, 147.787 130.373, 148.750 131.128 C 150.336 132.371, 150.371 132.336, 149.128 130.750 C 147.821 129.084, 147 128.555, 147 129.378 M 159.733 132.124 C 160.412 132.808, 161.219 133.115, 161.526 132.807 C 161.834 132.499, 161.279 131.940, 160.293 131.564 C 158.868 131.022, 158.753 131.136, 159.733 132.124 M 153.057 134.894 C 151.912 137.033, 152.596 142, 154.035 142 C 154.485 142, 155.032 142.787, 155.251 143.750 C 155.470 144.713, 155.523 142.858, 155.370 139.628 C 155.049 132.898, 154.608 131.995, 153.057 134.894 M 157.333 134.667 C 157.700 135.033, 158.300 135.033, 158.667 134.667 C 159.033 134.300, 158.733 134, 158 134 C 157.267 134, 156.967 134.300, 157.333 134.667 M 148 137.059 C 148 137.641, 148.450 137.840, 149 137.500 C 149.550 137.160, 150 136.684, 150 136.441 C 150 136.198, 149.550 136, 149 136 C 148.450 136, 148 136.477, 148 137.059 M 150.140 144.514 C 149.995 147.308, 150.496 149.870, 151.453 151.237 C 152.532 152.777, 153.030 153, 153.100 151.973 C 153.155 151.163, 153.560 151.625, 154 153 C 154.790 155.466, 154.802 155.469, 154.900 153.191 C 154.955 151.921, 155.399 151.129, 155.887 151.430 C 156.374 151.731, 157.365 151.195, 158.088 150.239 C 159.194 148.777, 159.186 148.694, 158.037 149.715 C 156.950 150.681, 156.381 150.579, 155.261 149.215 C 154.486 148.272, 154.137 148.063, 154.485 148.750 C 154.833 149.438, 154.672 150, 154.126 150 C 152.904 150, 151.894 146.988, 151.781 143.002 C 151.648 138.326, 150.401 139.475, 150.140 144.514 M 160 151 C 160 151.733, 160.300 152.033, 160.667 151.667 C 161.033 151.300, 161.033 150.700, 160.667 150.333 C 160.300 149.967, 160 150.267, 160 151 M 150 155.034 C 151.308 155.908, 151.276 156.168, 149.750 157.068 C 148.787 157.635, 148.007 158.640, 148.015 159.300 C 148.026 160.130, 148.291 160.089, 148.877 159.165 C 149.343 158.430, 150.123 157.980, 150.612 158.165 C 151.100 158.349, 151.644 157.488, 151.820 156.250 C 152.051 154.620, 151.638 154.004, 150.320 154.015 C 148.772 154.028, 148.724 154.180, 150 155.034 M 153.822 157.051 C 153.522 157.848, 153.633 159.400, 154.068 160.500 L 154.859 162.500 154.945 160.500 C 155.015 158.855, 155.198 158.764, 155.971 159.987 C 156.716 161.166, 156.878 161.024, 156.748 159.307 C 156.658 158.114, 156.267 157.335, 155.878 157.576 C 155.489 157.816, 154.990 157.470, 154.769 156.807 C 154.490 155.971, 154.200 156.046, 153.822 157.051 M 160.813 159.683 C 161.534 159.972, 162.397 159.936, 162.729 159.604 C 163.061 159.272, 162.471 159.036, 161.417 159.079 C 160.252 159.127, 160.015 159.364, 160.813 159.683 M 149.564 162.293 C 149.940 163.279, 150.499 163.834, 150.807 163.526 C 151.115 163.219, 150.808 162.412, 150.124 161.733 C 149.136 160.753, 149.022 160.868, 149.564 162.293 M 152 164 C 152 164.733, 152.300 165.033, 152.667 164.667 C 153.033 164.300, 153.033 163.700, 152.667 163.333 C 152.300 162.967, 152 163.267, 152 164 M 158.469 165.500 C 158.211 166.325, 157.795 167.661, 157.544 168.468 C 157.293 169.275, 157.469 170.172, 157.935 170.460 C 158.402 170.748, 158.967 169.413, 159.191 167.492 C 159.615 163.856, 159.275 162.918, 158.469 165.500 M 149 167 C 149 167.733, 149.300 168.033, 149.667 167.667 C 150.033 167.300, 150.033 166.700, 149.667 166.333 C 149.300 165.967, 149 166.267, 149 167 M 153.137 171.750 C 153.402 176.737, 153.750 177.204, 156.212 175.886 C 157.886 174.991, 158.201 175.040, 157.790 176.134 C 157.508 176.885, 157.652 178.400, 158.111 179.500 C 158.749 181.029, 158.893 180.676, 158.723 178 C 158.550 175.285, 158.107 174.566, 156.750 174.794 C 154.725 175.134, 154.469 173.931, 156.200 172.200 C 157.133 171.267, 157.133 171, 156.200 171 C 155.540 171, 155 170.325, 155 169.500 C 155 168.675, 154.536 168, 153.969 168 C 153.401 168, 153.027 169.688, 153.137 171.750 M 150.543 169.931 C 150.226 170.443, 150.425 171.144, 150.984 171.490 C 151.543 171.835, 152 171.416, 152 170.559 C 152 168.802, 151.400 168.544, 150.543 169.931 M 150.405 175.155 C 149.962 175.870, 150.130 176.038, 150.845 175.595 C 151.480 175.203, 152 174.684, 152 174.441 C 152 173.607, 151.117 174.002, 150.405 175.155 M 146.813 176.683 C 147.534 176.972, 148.397 176.936, 148.729 176.604 C 149.061 176.272, 148.471 176.036, 147.417 176.079 C 146.252 176.127, 146.015 176.364, 146.813 176.683 M 148 178.393 C 148 178.609, 148.698 179.054, 149.552 179.382 C 150.442 179.723, 150.843 179.555, 150.493 178.989 C 149.906 178.038, 148 177.583, 148 178.393 M 153.150 180.950 C 153.580 182.239, 154.951 182.471, 155.075 181.275 C 155.116 180.876, 154.610 180.370, 153.950 180.150 C 153.290 179.930, 152.930 180.290, 153.150 180.950 M 71.778 185.935 C 73.634 189.169, 74.807 189.376, 73.089 186.166 C 72.290 184.674, 72.334 184.033, 73.258 183.660 C 73.941 183.384, 73.508 183.122, 72.297 183.079 C 70.141 183.002, 70.130 183.064, 71.778 185.935 M 109 183.906 C 109 184.405, 109.900 184.577, 111 184.290 C 112.100 184.002, 113 183.594, 113 183.383 C 113 183.173, 112.100 183, 111 183 C 109.900 183, 109 183.408, 109 183.906 M 152.102 184.309 C 152.046 185.304, 151.555 185.843, 151.011 185.507 C 150.424 185.144, 150.290 185.593, 150.681 186.612 C 151.179 187.910, 150.994 188.119, 149.920 187.472 C 148.708 186.741, 148.701 186.864, 149.872 188.308 C 151.122 189.848, 150.757 190.435, 148.750 190.118 C 148.338 190.053, 148 190.675, 148 191.500 C 148 193.588, 148.866 193.375, 151.056 190.750 C 152.089 189.512, 152.948 189.063, 152.967 189.750 C 152.985 190.438, 153.477 191, 154.059 191 C 154.641 191, 154.795 190.477, 154.399 189.837 C 154.004 189.198, 153.349 187.285, 152.943 185.587 C 152.537 183.889, 152.159 183.314, 152.102 184.309 M 158.405 184.155 C 157.962 184.870, 158.130 185.038, 158.845 184.595 C 159.480 184.203, 160 183.684, 160 183.441 C 160 182.607, 159.117 183.002, 158.405 184.155 M 39 185.845 C 39 186.310, 40.013 187.547, 41.250 188.595 L 43.500 190.500 41.500 188.093 L 39.500 185.686 41.751 186.250 C 42.990 186.560, 43.751 186.405, 43.442 185.907 C 42.735 184.762, 39 184.710, 39 185.845 M 78.015 185.750 C 78.024 186.162, 78.516 187.175, 79.110 188 C 80.032 189.282, 80.110 189.255, 79.651 187.815 C 79.355 186.888, 79.650 185.911, 80.306 185.644 C 80.963 185.376, 80.713 185.122, 79.750 185.079 C 78.787 185.036, 78.007 185.338, 78.015 185.750 M 111.015 185.559 C 111.038 186.941, 112.814 189.520, 113.364 188.969 C 113.624 188.710, 113.198 187.624, 112.418 186.557 C 111.638 185.491, 111.007 185.041, 111.015 185.559 M 117 185.566 C 117 186.916, 119.161 190, 120.107 190 C 120.677 190, 120.402 189.260, 119.498 188.355 C 118.169 187.026, 118.107 186.548, 119.176 185.870 C 120.182 185.232, 120.080 185.027, 118.750 185.015 C 117.787 185.007, 117 185.255, 117 185.566 M 24 187 C 24 187.733, 24.300 188.033, 24.667 187.667 C 25.033 187.300, 25.033 186.700, 24.667 186.333 C 24.300 185.967, 24 186.267, 24 187 M 27 186.393 C 27 186.609, 27.698 187.054, 28.552 187.382 C 29.442 187.723, 29.843 187.555, 29.493 186.989 C 28.906 186.038, 27 185.583, 27 186.393 M 82 187 C 82 187.733, 82.300 188.033, 82.667 187.667 C 83.033 187.300, 83.033 186.700, 82.667 186.333 C 82.300 185.967, 82 186.267, 82 187 M 156.232 189 C 156.232 190.925, 156.438 191.713, 156.689 190.750 C 156.941 189.787, 156.941 188.213, 156.689 187.250 C 156.438 186.287, 156.232 187.075, 156.232 189 M 31.405 188.155 C 30.962 188.870, 31.130 189.038, 31.845 188.595 C 32.480 188.203, 33 187.684, 33 187.441 C 33 186.607, 32.117 187.002, 31.405 188.155 M 52 188.059 C 52 188.641, 52.518 188.798, 53.152 188.406 C 53.785 188.015, 54.910 188.524, 55.652 189.538 C 56.393 190.553, 57 190.936, 57 190.391 C 57 188.983, 54.836 187, 53.300 187 C 52.585 187, 52 187.477, 52 188.059 M 60 187.737 C 60 188.911, 62.171 191, 63.391 191 C 63.936 191, 63.509 190.339, 62.441 189.532 C 60.575 188.120, 60.601 188.062, 63.128 188.032 C 64.709 188.013, 66.434 188.896, 67.458 190.250 C 69.154 192.493, 69.155 192.492, 67.716 190 C 66.755 188.334, 65.226 187.395, 63.137 187.187 C 61.411 187.014, 60 187.262, 60 187.737 M 90 187.383 C 90 187.594, 91.111 187.979, 92.470 188.239 C 93.828 188.499, 94.702 188.326, 94.411 187.856 C 93.899 187.027, 90 186.610, 90 187.383 M 99 187.878 C 99 188.360, 99.787 189.373, 100.750 190.128 C 102.318 191.358, 102.364 191.326, 101.192 189.827 C 100.059 188.379, 100.193 188.095, 102.192 187.713 C 104.243 187.322, 104.194 187.257, 101.750 187.136 C 100.237 187.061, 99 187.395, 99 187.878 M 129.813 187.683 C 130.534 187.972, 131.397 187.936, 131.729 187.604 C 132.061 187.272, 131.471 187.036, 130.417 187.079 C 129.252 187.127, 129.015 187.364, 129.813 187.683 M 138 187.861 C 138 188.335, 139.125 188.508, 140.500 188.245 C 141.875 187.982, 143 187.594, 143 187.383 C 143 187.173, 141.875 187, 140.500 187 C 139.125 187, 138 187.388, 138 187.861 M 45 189 C 44.099 189.582, 43.975 189.975, 44.691 189.985 C 45.346 189.993, 46.160 189.550, 46.500 189 C 47.267 187.758, 46.921 187.758, 45 189 M 83.405 189.155 C 82.962 189.870, 83.130 190.038, 83.845 189.595 C 84.480 189.203, 85 188.684, 85 188.441 C 85 187.607, 84.117 188.002, 83.405 189.155 M 122.405 189.155 C 121.962 189.870, 122.130 190.038, 122.845 189.595 C 123.480 189.203, 124 188.684, 124 188.441 C 124 187.607, 123.117 188.002, 122.405 189.155 M 133 189 C 133 189.733, 133.300 190.033, 133.667 189.667 C 134.033 189.300, 134.033 188.700, 133.667 188.333 C 133.300 187.967, 133 188.267, 133 189 M 90.658 190.449 C 90.287 191.416, 90.582 191.714, 91.545 191.344 C 92.339 191.040, 92.740 190.388, 92.435 189.895 C 91.669 188.655, 91.303 188.769, 90.658 190.449 M 108.500 190 C 108.840 190.550, 109.343 191, 109.618 191 C 109.893 191, 109.840 190.550, 109.500 190 C 109.160 189.450, 108.657 189, 108.382 189 C 108.107 189, 108.160 189.450, 108.500 190 M 129.658 190.449 C 129.287 191.416, 129.582 191.714, 130.545 191.344 C 131.339 191.040, 131.740 190.388, 131.435 189.895 C 130.669 188.655, 130.303 188.769, 129.658 190.449 M 28.447 192.499 C 28.476 193.600, 27.954 194.393, 27.286 194.262 C 26.584 194.124, 26.313 194.652, 26.643 195.512 C 26.957 196.330, 26.814 197, 26.325 197 C 25.836 197, 25.334 198.238, 25.210 199.750 C 25.085 201.262, 23.974 203.327, 22.742 204.337 C 21.509 205.347, 21.043 205.895, 21.706 205.555 C 23.425 204.673, 26.623 209.777, 25.227 211.173 C 24.638 211.762, 24.394 212.864, 24.685 213.622 C 24.976 214.380, 24.689 215, 24.048 215 C 23.407 215, 23.174 215.472, 23.530 216.049 C 23.966 216.754, 24.703 216.672, 25.781 215.799 C 26.807 214.968, 27.129 214.925, 26.676 215.681 C 26.286 216.330, 26.447 217.158, 27.032 217.520 C 27.773 217.978, 27.740 218.608, 26.926 219.589 C 26 220.705, 26.094 221, 27.378 221 C 28.270 221, 29 220.523, 29 219.941 C 29 219.359, 29.445 219.157, 29.989 219.493 C 31.103 220.182, 30.232 217.203, 28.762 215.298 C 27.694 213.914, 28.735 209.718, 29.959 210.474 C 30.407 210.751, 31.387 210.195, 32.137 209.239 C 33.385 207.647, 33.345 207.622, 31.661 208.946 C 30.011 210.244, 29.857 210.203, 30.161 208.550 C 30.347 207.537, 29.937 206.511, 29.249 206.270 C 28.479 206.001, 28.217 206.402, 28.567 207.315 C 28.880 208.131, 28.717 209.057, 28.204 209.374 C 26.459 210.452, 25.929 199.988, 27.584 197.127 L 29.104 194.500 28.512 197.334 C 28.154 199.048, 28.302 199.931, 28.888 199.569 C 29.421 199.240, 30.047 199.765, 30.280 200.735 C 30.513 201.706, 30.513 200.859, 30.281 198.853 C 30.048 196.842, 30.347 194.904, 30.946 194.534 C 31.544 194.164, 31.726 193.366, 31.352 192.761 C 30.919 192.060, 31.257 191.885, 32.285 192.279 C 33.374 192.697, 33.731 192.463, 33.384 191.559 C 32.547 189.376, 28.386 190.168, 28.447 192.499 M 51.507 190.989 C 51.157 191.555, 51.558 191.723, 52.448 191.382 C 54.180 190.717, 54.497 190, 53.059 190 C 52.541 190, 51.843 190.445, 51.507 190.989 M 106.500 191 C 106.840 191.550, 107.343 192, 107.618 192 C 107.893 192, 107.840 191.550, 107.500 191 C 107.160 190.450, 106.657 190, 106.382 190 C 106.107 190, 106.160 190.450, 106.500 191 M 114.333 190.667 C 114.700 191.033, 115.300 191.033, 115.667 190.667 C 116.033 190.300, 115.733 190, 115 190 C 114.267 190, 113.967 190.300, 114.333 190.667 M 38.500 192 C 38.160 192.550, 38.332 193, 38.882 193 C 39.432 193, 40.160 192.550, 40.500 192 C 40.840 191.450, 40.668 191, 40.118 191 C 39.568 191, 38.840 191.450, 38.500 192 M 84.345 192.543 C 84.019 193.392, 83.976 194.310, 84.249 194.583 C 84.523 194.856, 84.986 194.161, 85.279 193.040 C 85.903 190.657, 85.210 190.289, 84.345 192.543 M 123 192 C 123 192.733, 123.300 193.033, 123.667 192.667 C 124.033 192.300, 124.033 191.700, 123.667 191.333 C 123.300 190.967, 123 191.267, 123 192 M 62.333 192.667 C 62.700 193.033, 63.300 193.033, 63.667 192.667 C 64.033 192.300, 63.733 192, 63 192 C 62.267 192, 61.967 192.300, 62.333 192.667 M 97 193 C 97 193.733, 97.300 194.033, 97.667 193.667 C 98.033 193.300, 98.033 192.700, 97.667 192.333 C 97.300 191.967, 97 192.267, 97 193 M 100.813 192.683 C 101.534 192.972, 102.397 192.936, 102.729 192.604 C 103.061 192.272, 102.471 192.036, 101.417 192.079 C 100.252 192.127, 100.015 192.364, 100.813 192.683 M 114 193 C 114 193.733, 114.300 194.033, 114.667 193.667 C 115.033 193.300, 115.033 192.700, 114.667 192.333 C 114.300 191.967, 114 192.267, 114 193 M 139.333 192.667 C 139.700 193.033, 140.300 193.033, 140.667 192.667 C 141.033 192.300, 140.733 192, 140 192 C 139.267 192, 138.967 192.300, 139.333 192.667 M 45 194 C 45 194.733, 45.300 195.033, 45.667 194.667 C 46.033 194.300, 46.033 193.700, 45.667 193.333 C 45.300 192.967, 45 193.267, 45 194 M 48 194 C 47.099 194.582, 46.975 194.975, 47.691 194.985 C 48.346 194.993, 49.160 194.550, 49.500 194 C 50.267 192.758, 49.921 192.758, 48 194 M 60.458 195.068 C 60.095 195.656, 59.168 195.895, 58.399 195.600 C 57.629 195.304, 57 195.499, 57 196.031 C 57 197.524, 59.607 197.178, 61 195.500 C 61.685 194.675, 61.991 194, 61.681 194 C 61.372 194, 60.821 194.481, 60.458 195.068 M 86.333 194.667 C 86.700 195.033, 87.300 195.033, 87.667 194.667 C 88.033 194.300, 87.733 194, 87 194 C 86.267 194, 85.967 194.300, 86.333 194.667 M 99.458 195.068 C 99.095 195.656, 98.168 195.895, 97.399 195.600 C 96.629 195.304, 96 195.499, 96 196.031 C 96 197.524, 98.607 197.178, 100 195.500 C 100.685 194.675, 100.991 194, 100.681 194 C 100.372 194, 99.821 194.481, 99.458 195.068 M 123.813 194.683 C 124.534 194.972, 125.397 194.936, 125.729 194.604 C 126.061 194.272, 125.471 194.036, 124.417 194.079 C 123.252 194.127, 123.015 194.364, 123.813 194.683 M 135 195.500 C 135 196.325, 135.436 197, 135.969 197 C 136.501 197, 136.678 196.325, 136.362 195.500 C 136.045 194.675, 135.609 194, 135.393 194 C 135.177 194, 135 194.675, 135 195.500 M 138.405 195.155 C 137.962 195.870, 138.130 196.038, 138.845 195.595 C 139.480 195.203, 140 194.684, 140 194.441 C 140 193.607, 139.117 194.002, 138.405 195.155 M 32 214 C 31.099 214.582, 30.975 214.975, 31.691 214.985 C 32.346 214.993, 33.160 214.550, 33.500 214 C 34.267 212.758, 33.921 212.758, 32 214 M 23.079 219.583 C 23.127 220.748, 23.364 220.985, 23.683 220.188 C 23.972 219.466, 23.936 218.603, 23.604 218.271 C 23.272 217.939, 23.036 218.529, 23.079 219.583 M 35 220 C 34.099 220.582, 33.975 220.975, 34.691 220.985 C 35.346 220.993, 36.160 220.550, 36.500 220 C 37.267 218.758, 36.921 218.758, 35 220 M 22 223 C 22 223.733, 22.300 224.033, 22.667 223.667 C 23.033 223.300, 23.033 222.700, 22.667 222.333 C 22.300 221.967, 22 222.267, 22 223 M 25.388 223.876 C 26.988 225.644, 26.983 225.798, 25.293 226.535 C 24.307 226.965, 23.209 227.262, 22.853 227.193 C 22.497 227.125, 22.920 229.303, 23.794 232.034 C 25.355 236.917, 26.299 237.943, 27.477 236.036 C 27.805 235.507, 27.157 234.157, 26.036 233.036 C 23.727 230.727, 23.482 229.438, 25.155 228.405 C 25.835 227.984, 26.039 228.128, 25.651 228.755 C 25.290 229.341, 25.276 230.555, 25.620 231.453 C 26.196 232.953, 26.392 232.955, 28.020 231.482 C 29.409 230.225, 29.892 230.162, 30.252 231.189 C 30.504 231.910, 30.719 231.253, 30.730 229.730 C 30.748 227.304, 30.598 227.167, 29.528 228.631 C 27.856 230.917, 26.553 228.705, 27.989 226.021 C 28.856 224.401, 28.766 224, 27.535 224 C 26.691 224, 26 223.550, 26 223 C 26 222.450, 25.480 222, 24.845 222 C 24.165 222, 24.388 222.771, 25.388 223.876 M 31.405 224.155 C 30.962 224.870, 31.130 225.038, 31.845 224.595 C 32.480 224.203, 33 223.684, 33 223.441 C 33 222.607, 32.117 223.002, 31.405 224.155 M 17 234.218 C 17 235.295, 19.187 235.173, 21 233.995 C 22.149 233.248, 21.856 233.069, 19.750 233.228 C 18.238 233.343, 17 233.788, 17 234.218 M 29.589 237.500 C 28.975 239.949, 26 241.090, 26 238.878 C 26 238.052, 25.645 238.050, 24.658 238.869 C 23.920 239.481, 23.020 239.687, 22.658 239.325 C 22.296 238.963, 22 239.155, 22 239.752 C 22 240.348, 21.727 241.548, 21.393 242.418 C 20.952 243.567, 21.392 244, 23 244 C 24.557 244, 25.043 243.555, 24.638 242.500 C 24.223 241.416, 24.748 241, 26.531 241 C 30.157 241, 30.525 241.109, 30.250 242.100 C 30.113 242.595, 30.450 243, 31 243 C 32.296 243, 32.293 241.299, 30.996 240.498 C 30.444 240.157, 30.268 238.780, 30.605 237.439 C 30.941 236.097, 30.992 235, 30.717 235 C 30.442 235, 29.934 236.125, 29.589 237.500" stroke="none" fill="#adbe93" fill-rule="evenodd"/><path d="M 149.750 10.194 C 152.063 12.507, 153.655 12.150, 152.655 9.543 C 152.329 8.694, 151.049 8, 149.809 8 L 147.556 8 149.750 10.194 M 155 10.393 C 155 12.135, 157.229 13.024, 161.332 12.919 L 164.500 12.838 161.726 11.609 C 160.201 10.933, 159.263 10.070, 159.643 9.690 C 160.023 9.311, 159.133 9, 157.667 9 C 156.054 9, 155 9.551, 155 10.393 M 149 17.417 C 149 18.288, 149.713 19, 150.583 19 C 151.454 19, 151.989 18.466, 151.771 17.813 C 151.153 15.958, 149 15.651, 149 17.417 M 151.393 22.582 C 151.727 23.452, 152 24.561, 152 25.047 C 152 25.532, 152.908 26.415, 154.017 27.009 C 155.560 27.835, 156.553 27.726, 158.240 26.545 C 160.331 25.080, 160.343 25, 158.463 25 C 157.373 25, 155.919 24.100, 155.232 23 C 153.722 20.583, 150.491 20.230, 151.393 22.582 M 147.729 25.604 C 146.363 26.971, 146.965 32.050, 148.567 32.664 C 151.119 33.643, 152.626 31.361, 150.807 29.274 C 149.957 28.298, 149.080 26.909, 148.860 26.188 C 148.639 25.466, 148.130 25.203, 147.729 25.604 M 157.534 29.963 C 155.649 32.045, 156.140 35.453, 158.225 34.758 C 159.540 34.320, 161.226 28, 160.029 28 C 159.633 28, 158.511 28.883, 157.534 29.963 M 151.159 39.201 C 151.134 40.465, 150.811 42.962, 150.443 44.750 C 149.891 47.427, 150.079 48, 151.512 48 C 152.931 48, 153.138 47.403, 152.642 44.750 C 152.209 42.437, 152.310 41.965, 152.991 43.115 C 154.365 45.433, 158.313 44.925, 159.474 42.280 C 160.010 41.059, 161.135 39.874, 161.974 39.646 C 162.813 39.418, 162.375 39.194, 161 39.148 C 159.625 39.101, 157.600 39.744, 156.500 40.576 C 154.657 41.970, 154.459 41.914, 153.972 39.868 C 153.253 36.842, 151.216 36.359, 151.159 39.201 M 156.181 51.064 C 155.455 52.236, 155.125 53.458, 155.447 53.781 C 156.413 54.747, 158.214 52.337, 157.844 50.573 C 157.556 49.199, 157.286 49.279, 156.181 51.064 M 146 54.934 C 146 55.585, 146.449 55.840, 146.998 55.501 C 147.547 55.162, 149.089 56.148, 150.425 57.692 C 152.619 60.229, 152.922 60.324, 153.559 58.683 C 154.457 56.374, 153.273 55.205, 149.219 54.394 C 147.044 53.959, 146 54.134, 146 54.934 M 155.200 61.200 C 153.592 62.808, 153.676 65, 155.345 65 C 156.695 65, 160 61.927, 160 60.671 C 160 59.539, 156.473 59.927, 155.200 61.200 M 149.460 71.491 C 151.529 73.113, 153.180 73.106, 153.106 71.475 C 153.082 70.939, 151.811 70.377, 150.281 70.227 C 147.607 69.965, 147.576 70.014, 149.460 71.491 M 155.441 71.096 C 154.139 73.203, 157.381 75.074, 161.051 74.334 L 164.500 73.639 161.065 72.743 C 158.462 72.064, 157.978 71.627, 159.065 70.939 C 160.180 70.233, 160.011 70.027, 158.309 70.015 C 157.104 70.007, 155.813 70.493, 155.441 71.096 M 148.570 77.887 C 147.921 78.936, 150.416 81.250, 151.273 80.394 C 152.045 79.621, 151.025 77, 149.952 77 C 149.493 77, 148.871 77.399, 148.570 77.887 M 151.393 83.582 C 151.727 84.452, 152 85.749, 152 86.465 C 152 88.451, 156.054 89.076, 158.379 87.447 L 160.445 86 158.377 86 C 157.240 86, 155.495 85.100, 154.500 84 C 152.336 81.609, 150.543 81.368, 151.393 83.582 M 147.615 87.561 C 145.894 92.047, 147.872 95.933, 150.919 94.050 C 151.865 93.466, 151.693 92.421, 150.193 89.622 C 148.700 86.836, 148.083 86.342, 147.615 87.561 M 157.200 91.200 C 156.540 91.860, 156 93.243, 156 94.273 C 156 97.322, 159.447 95.939, 159.816 92.741 C 160.153 89.822, 159.162 89.238, 157.200 91.200 M 151.389 99.570 C 151.725 100.447, 152 101.352, 152 101.582 C 152 101.812, 152.450 102, 153 102 C 154.629 102, 154.138 99.267, 152.389 98.596 C 151.209 98.143, 150.941 98.404, 151.389 99.570 M 157.441 101.468 C 156.374 102.276, 154.738 102.951, 153.807 102.968 C 151.334 103.015, 148.765 107.012, 150.142 108.671 C 151.794 110.661, 153.244 109.113, 152.510 106.141 C 151.985 104.012, 152.105 103.742, 153.129 104.750 C 155.285 106.871, 158.952 106.256, 159.960 103.605 C 160.461 102.288, 161.462 100.973, 162.185 100.684 C 162.942 100.381, 162.626 100.124, 161.441 100.079 C 160.309 100.036, 158.509 100.661, 157.441 101.468 M 156.082 112.327 C 155.302 113.795, 154.972 115.305, 155.348 115.682 C 156.520 116.853, 158.186 114.347, 157.835 111.944 C 157.504 109.682, 157.485 109.686, 156.082 112.327 M 147 116.737 C 147.825 117.055, 149.088 118.145, 149.807 119.158 C 151.507 121.555, 154 121.525, 154 119.107 C 154 116.964, 152.073 115.963, 148.168 116.079 C 146.563 116.126, 146.098 116.389, 147 116.737 M 156.250 122.099 C 153.825 123.001, 153.131 126, 155.347 126 C 156.088 126, 157.672 125.152, 158.868 124.115 C 161.394 121.924, 159.873 120.752, 156.250 122.099 M 149.750 131.194 C 152.063 133.507, 153.655 133.150, 152.655 130.543 C 152.329 129.694, 151.049 129, 149.809 129 L 147.556 129 149.750 131.194 M 155.185 131.750 C 155.436 133.072, 156.615 133.545, 160.009 133.686 C 163.434 133.828, 163.907 133.688, 162 133.097 C 160.625 132.671, 159.613 131.800, 159.750 131.161 C 159.889 130.516, 158.858 130, 157.427 130 C 155.516 130, 154.939 130.451, 155.185 131.750 M 148.496 138.007 C 148.153 138.561, 148.596 139.292, 149.480 139.631 C 151.394 140.365, 152.461 139.556, 151.541 138.067 C 150.711 136.723, 149.306 136.696, 148.496 138.007 M 151.773 144.910 C 152.284 148.388, 155.352 149.567, 158.379 147.447 L 160.445 146 158.258 146 C 157.055 146, 155.589 145.100, 155 144 C 153.342 140.902, 151.271 141.486, 151.773 144.910 M 147.515 148.248 C 146.544 151.897, 147.467 154, 150.038 154 C 151.652 154, 152.060 154.522, 151.796 156.250 C 151.607 157.488, 150.901 158.387, 150.226 158.250 C 148.798 157.959, 148.556 160.608, 149.934 161.459 C 150.448 161.777, 150.614 163.603, 150.303 165.518 C 149.937 167.774, 150.136 169, 150.869 169 C 151.491 169, 152 169.730, 152 170.622 C 152 171.951, 151.729 172.020, 150.500 171 C 149.270 169.979, 149 170.052, 149 171.409 C 149 172.319, 149.675 173.322, 150.500 173.638 C 153.030 174.609, 152.164 175.971, 149.250 175.604 C 147.738 175.414, 146.963 175.439, 147.529 175.660 C 148.094 175.881, 149.100 176.931, 149.764 177.994 C 150.768 179.601, 150.721 179.830, 149.485 179.356 C 147.368 178.543, 147.507 183.625, 149.635 184.816 C 151.104 185.638, 151.053 185.947, 149.135 187.865 C 146.795 190.205, 145.448 190.534, 144.500 189 C 143.725 187.746, 139 187.675, 139 188.917 C 139 189.421, 139.563 190.060, 140.250 190.338 C 140.938 190.615, 139.798 190.878, 137.719 190.921 C 135.224 190.973, 133.741 190.489, 133.362 189.500 C 133.045 188.675, 132.104 188, 131.271 188 C 129.973 188, 129.953 188.243, 131.128 189.687 C 132.324 191.158, 132.284 191.294, 130.813 190.743 C 129.884 190.395, 127.297 189.619, 125.063 189.017 C 122.828 188.415, 121 187.490, 121 186.961 C 121 186.433, 120.339 186, 119.531 186 C 118.649 186, 118.288 186.588, 118.628 187.473 C 119.066 188.615, 118.388 188.916, 115.618 188.812 C 112.393 188.691, 112.100 188.448, 112.630 186.339 C 113.088 184.513, 112.809 184.003, 111.358 184.015 C 110.015 184.026, 109.856 184.256, 110.784 184.845 C 112.542 185.961, 111.387 188.503, 108.529 189.805 C 106.673 190.651, 106.050 190.573, 105.615 189.440 C 105.311 188.648, 103.869 188, 102.409 188 C 100.163 188, 99.947 188.231, 101 189.500 C 102.066 190.785, 101.741 191, 98.729 191 C 96.527 191, 94.999 190.440, 94.638 189.500 C 94.322 188.675, 93.319 188, 92.409 188 C 90.982 188, 90.943 188.231, 92.128 189.687 C 93.324 191.158, 93.284 191.294, 91.813 190.743 C 90.884 190.395, 88.297 189.619, 86.063 189.017 C 83.828 188.415, 82 187.490, 82 186.961 C 82 186.433, 81.339 186, 80.531 186 C 79.633 186, 79.288 186.586, 79.641 187.508 C 80.101 188.706, 79.478 188.963, 76.612 188.758 C 72.547 188.467, 72.631 188.559, 74.035 185.934 C 74.845 184.420, 74.743 184, 73.567 184 C 72.739 184, 72.269 184.563, 72.521 185.250 C 73.113 186.865, 72.039 188.417, 69.350 189.832 C 67.632 190.736, 67.086 190.666, 66.631 189.482 C 66.313 188.652, 64.840 188.014, 63.281 188.032 C 60.620 188.062, 60.584 188.127, 62.441 189.532 C 64.250 190.900, 64.104 191, 60.298 191 C 57.590 191, 56.020 190.495, 55.638 189.500 C 55.322 188.675, 54.551 188, 53.924 188 C 53.288 188, 53.059 188.711, 53.404 189.611 C 53.878 190.846, 53.611 191.055, 52.261 190.503 C 51.293 190.107, 49.054 189.365, 47.286 188.855 C 45.519 188.344, 43.804 187.493, 43.477 186.963 C 43.150 186.433, 42.178 186, 41.319 186 C 40.042 186, 39.984 186.275, 41 187.500 C 42.042 188.756, 41.888 189, 40.057 189 C 38.853 189, 36.969 188.519, 35.870 187.931 C 32.858 186.319, 30.553 188.456, 32.656 190.911 C 34.139 192.643, 39 192.705, 39 190.992 C 39 189.774, 43.739 188.896, 46.532 189.597 C 48.803 190.167, 48.892 190.359, 47.394 191.454 C 46.476 192.125, 45.927 193.282, 46.175 194.025 C 46.517 195.052, 47.099 194.901, 48.608 193.392 C 50.133 191.867, 51.573 191.502, 54.829 191.812 C 58.449 192.158, 58.979 192.492, 58.466 194.108 C 57.670 196.615, 59.648 196.537, 61.232 194 C 61.936 192.873, 63.577 191.993, 64.991 191.985 C 66.371 191.976, 68.175 191.540, 69 191.015 C 70.140 190.289, 70.631 190.592, 71.045 192.280 C 71.765 195.212, 75.388 195.282, 75.804 192.372 C 76.025 190.820, 77.020 190.096, 79.481 189.697 C 84.237 188.925, 87.373 189.845, 85.927 191.589 C 83.954 193.965, 85.421 195.530, 87.556 193.328 C 89.081 191.755, 90.423 191.419, 93.783 191.770 C 97.440 192.151, 97.978 192.493, 97.466 194.108 C 97.135 195.149, 97.290 196, 97.810 196 C 99.173 196, 101.102 193.436, 100.325 192.658 C 99.963 192.296, 101.121 192, 102.899 192 C 104.677 192, 107.056 191.505, 108.186 190.900 C 109.425 190.237, 109.994 190.201, 109.617 190.810 C 108.586 192.479, 110.084 195, 112.107 195 C 113.432 195, 114 194.289, 114 192.628 C 114 190.660, 114.639 190.153, 117.750 189.656 C 119.813 189.326, 122.496 189.317, 123.714 189.635 C 125.768 190.173, 125.809 190.334, 124.286 191.857 C 122.762 193.381, 122.770 193.524, 124.397 193.838 C 125.362 194.024, 126.680 193.526, 127.326 192.731 C 128.132 191.738, 129.793 191.427, 132.632 191.737 C 136.104 192.116, 136.684 192.492, 136.265 194.094 C 135.991 195.142, 136.214 196, 136.761 196 C 138.048 196, 140.522 193.040, 139.372 192.875 C 138.492 192.749, 145.812 191.209, 149.481 190.748 C 150.749 190.589, 151.595 191.182, 151.832 192.396 C 152.105 193.793, 151.782 194.130, 150.601 193.677 C 149.721 193.339, 149 193.499, 149 194.031 C 149 194.564, 149.900 195, 151 195 C 152.443 195, 153 194.333, 153 192.607 C 153 191.291, 152.370 189.972, 151.599 189.676 C 150.417 189.223, 150.455 188.425, 151.841 184.569 C 152.745 182.056, 154.034 180, 154.707 180 C 155.379 180, 156.444 179.039, 157.072 177.865 C 158.131 175.887, 158.022 175.778, 155.608 176.384 C 153.086 177.017, 153 176.890, 153 172.519 C 153 170.034, 153.447 168, 153.992 168 C 155.505 168, 160 163.805, 160 162.393 C 160 161.708, 160.787 160.941, 161.750 160.689 C 162.924 160.383, 162.668 160.194, 160.973 160.116 C 159.582 160.052, 157.445 160.701, 156.223 161.557 C 154.122 163.028, 153.992 162.987, 153.860 160.807 C 153.783 159.538, 153.774 156.700, 153.839 154.500 C 153.904 152.300, 153.701 151.072, 153.388 151.770 C 152.795 153.096, 149.839 150.041, 148.773 147 C 148.417 145.985, 148.010 146.389, 147.515 148.248 M 157.534 150.963 C 155.553 153.152, 156.130 156.271, 158.359 155.416 C 159.783 154.869, 161.268 149, 159.982 149 C 159.612 149, 158.511 149.883, 157.534 150.963 M 152 164 C 152 164.733, 152.300 165.033, 152.667 164.667 C 153.033 164.300, 153.033 163.700, 152.667 163.333 C 152.300 162.967, 152 163.267, 152 164 M 156.181 172.064 C 155.455 173.236, 155.125 174.458, 155.447 174.781 C 156.413 175.747, 158.214 173.337, 157.844 171.573 C 157.556 170.199, 157.286 170.279, 156.181 172.064 M 155.200 182.200 C 153.701 183.699, 153.636 186, 155.092 186 C 156.706 186, 161.036 182.369, 160.299 181.633 C 159.268 180.601, 156.490 180.910, 155.200 182.200 M 25.226 187.179 C 25.806 188.919, 28.782 190.551, 29.700 189.633 C 30.138 189.195, 29.624 188.198, 28.557 187.418 C 26.198 185.693, 24.695 185.585, 25.226 187.179 M 72 192.500 C 72 193.325, 72.450 194, 73 194 C 73.550 194, 74 193.325, 74 192.500 C 74 191.675, 73.550 191, 73 191 C 72.450 191, 72 191.675, 72 192.500 M 111 192.500 C 111 193.325, 111.450 194, 112 194 C 112.550 194, 113 193.325, 113 192.500 C 113 191.675, 112.550 191, 112 191 C 111.450 191, 111 191.675, 111 192.500 M 24 195.417 C 24 196.287, 24.712 197, 25.583 197 C 27.349 197, 27.042 194.847, 25.188 194.229 C 24.534 194.011, 24 194.546, 24 195.417 M 26.014 200.250 C 26.048 203.423, 27.368 205.863, 29.325 206.375 C 32.845 207.295, 33.267 205.510, 30.323 202.155 C 27.391 198.814, 25.991 198.195, 26.014 200.250 M 21.490 206.192 C 20.430 208.913, 21.375 211.500, 23.430 211.500 C 26.125 211.500, 26.390 209.700, 24.107 206.901 C 22.383 204.788, 22.070 204.703, 21.490 206.192 M 31.655 209.829 C 30.745 210.835, 30 212.185, 30 212.829 C 30 214.718, 32.837 214.172, 33.965 212.066 C 36.117 208.043, 34.600 206.574, 31.655 209.829 M 24.882 216.628 C 24.816 217.107, 24.821 217.851, 24.892 218.280 C 24.962 218.709, 24.308 220.437, 23.438 222.120 C 22.567 223.803, 22.129 225.895, 22.464 226.768 C 23.018 228.210, 23.222 228.207, 24.701 226.728 C 26.044 225.385, 26.103 224.829, 25.042 223.550 C 24.171 222.501, 24.118 222, 24.878 222 C 25.495 222, 26 222.398, 26 222.883 C 26 223.369, 27.005 224.030, 28.233 224.351 C 29.894 224.785, 31.190 224.143, 33.288 221.846 L 36.109 218.757 33.305 219.285 C 31.762 219.575, 29.375 220.158, 28 220.580 C 25.829 221.246, 25.666 221.144, 26.762 219.806 C 27.791 218.551, 27.744 218.033, 26.512 217.010 C 25.681 216.320, 24.947 216.148, 24.882 216.628 M 27.924 231.608 C 25.803 233.890, 25.736 234.171, 27.387 233.858 C 28.425 233.661, 29.648 232.488, 30.105 231.250 C 31.166 228.376, 30.886 228.422, 27.924 231.608 M 20 235.345 C 20 236.085, 20.816 237.429, 21.814 238.331 C 24.175 240.469, 26.427 238.666, 24.918 235.847 C 23.781 233.722, 20 233.336, 20 235.345 M 27.250 240.768 C 26.012 240.972, 25 241.783, 25 242.570 C 25 244.474, 29.617 244.441, 30.349 242.532 C 31.035 240.746, 30.214 240.280, 27.250 240.768" stroke="none" fill="#4f9139" fill-rule="evenodd"/></svg>